<svg xmlns="http://www.w3.org/2000/svg" xmlns:xlink="http://www.w3.org/1999/xlink" width="49" height="48.03" viewBox="0 0 49 48.03">
  <defs>
    <style>
      .cls-1 {
        fill: #fff;
        fill-rule: evenodd;
        filter: url(#filter);
      }
    </style>
    <filter id="filter" x="600" y="7239.97" width="49" height="48.03" filterUnits="userSpaceOnUse">
      <feOffset result="offset" dy="1" in="SourceAlpha"/>
      <feGaussianBlur result="blur" stdDeviation="1"/>
      <feFlood result="flood" flood-opacity="0.25"/>
      <feComposite result="composite" operator="in" in2="blur"/>
      <feBlend result="blend" in="SourceGraphic"/>
    </filter>
  </defs>
  <path id="twitter.svg" class="cls-1" d="M624.03,7259.79c-9.127-6.16-9.732-4.98-9.732-4.96-0.716,1.6,2.062,3.63,2.062,3.63l-0.794.02s-1.167-.03-0.912.8a5.4,5.4,0,0,0,1.655,2.18,2.311,2.311,0,0,0,1.534.02s-0.9.47-1.475,0.83c-0.942.6-.265,1.14-0.163,1.25a4.453,4.453,0,0,0,3.155,1.22,4.826,4.826,0,0,0-.9,1.49,1.538,1.538,0,0,0,.647,1.12,2.944,2.944,0,0,0,1.33.41c-4.939,5.23-10.891-.03-10.891-0.05,0.665,3.83,6.306,7.53,16.225,6.1,8.044-1.28,10.618-10.09,10.618-10.09s3.323,0.19,3.7-1.79a8.24,8.24,0,0,1-2.539-.12s2.556-1.11,2.676-2.44a5.671,5.671,0,0,1-3.784.84c-1.738-6.05-5.914-6.05-5.914-6.05s1.773-1.01,1.721-1.62c-0.545-.39-1.639.39-1.731,0.39a0.635,0.635,0,0,0-.246-0.95,1.933,1.933,0,0,0-.988,1.02,0.966,0.966,0,0,0-.494-0.48C625.99,7253.33,624.021,7259.78,624.03,7259.79Zm0.445-19.82a22.5,22.5,0,1,1-22.5,22.5A22.5,22.5,0,0,1,624.475,7239.97Z" transform="translate(-600 -7239.97)"/>
</svg>
